{"title":"Home Run 2013 DVDRip x264 AAC-KiSSMYACE","uid":8755629,"size":1070549628,"categoryP":"video","categoryS":"movies","magnet":"?xt=urn:btih:e072025eb72be6b5a1fddfd102455186337be582&amp;dn=Home+Run+2013+DVDRip+x264+AAC-KiSSMYACE&amp;tr=udp%3A%2F%2Ftracker.openbittorrent.com%3A80&amp;tr=udp%3A%2F%2Fopen.demonii.com%3A1337&amp;tr=udp%3A%2F%2Ftracker.coppersurfer.tk%3A6969&amp;tr=udp%3A%2F%2Fexodus.desync.com%3A6969","seeders":1,"leechers":0,"uploader":"xxxlavalxxx","files":-1,"time":1375145704,"description":" &lt;a href=&quot;http://www.imdb.com/title/tt2051894/&quot; rel=&quot;nofollow&quot; target=&quot;_NEW&quot;&gt;http://www.imdb.com/title/tt2051894/&lt;/a&gt;\n\n\nA pro ball player with a substance abuse problem is forced into rehab in his hometown, finding new hope when he gets honest about his checkered past, and takes on coaching duties for a misfit Little League team. \n\n\n\nDirector:\n David Boyd \n\nWriters:\n Brian Brightly, Candace Lee\n\nStars:\n Scott Elrod, Dorian Brown, Charles Henry Wyson \n\nGenres:\n  Drama |  Sport \n\nCountry:\n USA \n\nLanguage:\n English\n\n\nSource: VOB.Files-NoGrp [THANKS]\n\nGeneral\n Complete name                            : Home Run 2013 DVDRip x264 AAC-KiSSMYACE.mp4\n Format                                   : MPEG-4\n Format profile                           : Base Media\n Codec ID                                 : isom\n File size                                : 1 013 MiB\n Duration                                 : 1h 53mn\n Overall bit rate mode                    : Variable\n Overall bit rate                         : 1 250 Kbps\n Encoded date                             : UTC 2013-07-29 22:04:23\n Tagged date                              : UTC 2013-07-29 22:04:23\n\n Video\n ID                                       : 1\n Format                                   : AVC\n Format/Info                              : Advanced Video Codec\n Format profile                           : &lt;a class=&quot;__cf_email__&quot; href=&quot;/cdn-cgi/l/email-protection&quot; data-cfemail=&quot;7b33121c133b374f554a&quot;&gt;[email&amp;#160;protected]&lt;/a&gt;&lt;script cf-hash='f9e31' type=&quot;text/javascript&quot;&gt;\n/* &lt;![CDATA[ */!function(){try{var t=&quot;currentScript&quot;in document?document.currentScript:function(){for(var t=document.getElementsByTagName(&quot;script&quot;),e=t.length;e--;)if(t[e].getAttribute(&quot;cf-hash&quot;))return t[e]}();if(t&amp;&amp;t.previousSibling){var e,r,n,i,c=t.previousSibling,a=c.getAttribute(&quot;data-cfemail&quot;);if(a){for(e=&quot;&quot;,r=parseInt(a.substr(0,2),16),n=2;a.length-n;n+=2)i=parseInt(a.substr(n,2),16)^r,e+=String.fromCharCode(i);e=document.createTextNode(e),c.parentNode.replaceChild(e,c)}}}catch(u){}}();/* ]]&gt; */&lt;/script&gt;\n Format settings, CABAC                   : Yes\n Format settings, ReFrames                : 3 frames\n Codec ID                                 : avc1\n Codec ID/Info                            : Advanced Video Coding\n Duration                                 : 1h 53mn\n Bit rate mode                            : Variable\n Bit rate                                 : 926 Kbps\n Maximum bit rate                         : 40.0 Mbps\n Width                                    : 720 pixels\n Height                                   : 384 pixels\n Display aspect ratio                     : 1.85:1\n Frame rate mode                          : Constant\n Frame rate                               : 23.976 fps\n Color space                              : YUV\n Chroma subsampling                       : 4:2:0\n Bit depth                                : 8 bits\n Scan type                                : Progressive\n Bits/(Pixel*Frame)                       : 0.140\n Stream size                              : 750 MiB (74%)\n Writing library                          : x264 core 135 r2345 f0c1c53\n\n Audio\n ID                                       : 2\n Format                                   : AAC\n Format/Info                              : Advanced Audio Codec\n Format profile                           : LC\n Codec ID                                 : 40\n Duration                                 : 1h 53mn\n Bit rate mode                            : Variable\n Bit rate                                 : 320 Kbps\n Maximum bit rate                         : 378 Kbps\n Channel(s)                               : 6 channels\n Channel positions                        : Front: L C R, Side: L R, LFE\n Sampling rate                            : 48.0 KHz\n Compression mode                         : Lossy\n Stream size                              : 259 MiB (26%)\n Language                                 : English\n Encoded date                             : UTC 2013-07-29 20:51:26\n Tagged date                              : UTC 2013-07-29 22:04:42\n\n\n\nscreens\n\n\n    &lt;a href=&quot;\thttp://addpix.net/viewer.php?file=60070672745765459538.jpg&quot; rel=&quot;nofollow&quot; target=&quot;_NEW&quot;&gt;\thttp://addpix.net/viewer.php?file=60070672745765459538.jpg&lt;/a&gt;\n    &lt;a href=&quot;\thttp://addpix.net/viewer.php?file=88898831882177875917.jpg&quot; rel=&quot;nofollow&quot; target=&quot;_NEW&quot;&gt;\thttp://addpix.net/viewer.php?file=88898831882177875917.jpg&lt;/a&gt;\n    &lt;a href=&quot;\thttp://addpix.net/viewer.php?file=11723494591311101683.jpg&quot; rel=&quot;nofollow&quot; target=&quot;_NEW&quot;&gt;\thttp://addpix.net/viewer.php?file=11723494591311101683.jpg&lt;/a&gt;","torrent":{"xt":"urn:btih:e072025eb72be6b5a1fddfd102455186337be582","amp;dn":"Home+Run+2013+DVDRip+x264+AAC-KiSSMYACE","amp;tr":["udp%3A%2F%2Ftracker.openbittorrent.com%3A80","udp%3A%2F%2Fopen.demonii.com%3A1337","udp%3A%2F%2Ftracker.coppersurfer.tk%3A6969","udp%3A%2F%2Fexodus.desync.com%3A6969"],"infoHash":"e072025eb72be6b5a1fddfd102455186337be582","infoHashBuffer":{"type":"Buffer","data":[224,114,2,94,183,43,230,181,161,253,223,209,2,69,81,134,51,123,229,130]},"announce":[],"urlList":[]}}